<svg xmlns="http://www.w3.org/2000/svg" width="6.669" height="9.801" viewBox="0 0 6.669 9.801">
  <path id="Icon_ionic-ios-arrow-round-down" data-name="Icon ionic-ios-arrow-round-down" d="M17.463,13.934a.431.431,0,0,0-.607,0l-2.01,2V8.3a.429.429,0,0,0-.858,0v7.633l-2.01-2.006a.434.434,0,0,0-.607,0,.427.427,0,0,0,0,.6l2.739,2.719h0a.482.482,0,0,0,.135.089.409.409,0,0,0,.165.033.43.43,0,0,0,.3-.122l2.739-2.719A.42.42,0,0,0,17.463,13.934Z" transform="translate(-11.065 -7.725)" fill="#9c9c9c" stroke="#9c9c9c" stroke-width="0.3"/>
</svg>
